#N canvas 460 118 850 708 12;
#X obj 66 102 unpack f f f;
#X obj 64 277 abs;
#X obj 175 276 abs;
#X obj 295 275 abs;
#X obj 63 313 int;
#X obj 99 389 int;
#X obj 82 415 -;
#X obj 80 459 *;
#X obj 175 307 int;
#X obj 211 383 int;
#X obj 194 409 -;
#X obj 192 453 *;
#X obj 297 311 int;
#X obj 333 387 int;
#X obj 316 413 -;
#X obj 314 457 *;
#X obj 142 500 +;
#X obj 214 534 +;
#X obj 212 565 sqrt;
#X obj 207 648 accum;
#X floatatom 192 725 5 0 0 0 - - -;
#X obj 134 774 sel 1 0;
#X msg 134 799 0;
#N canvas 0 0 450 300 (subpatch) 0;
#X array sample1 88200 float 0;
#X coords 0 1 88199 -1 200 140 1;
#X restore 477 437 graph;
#X obj 472 391 soundfiler;
#X obj 476 326 loadbang;
#X obj 288 943 tabread4~ sample1;
#X floatatom 403 117 5 0 0 0 - - -;
#X obj 66 55 route /acs/motion /sw;
#X obj 484 261 tabwrite~ sample1;
#X obj 433 183 sel 1;
#X obj 540 178 adc~;
#X obj 210 602 t b f;
#X msg 474 358 read -resize sample2000.wav sample1;
#X obj 266 1046 dac~;
#X obj 64 19 dumpOSC 5678;
#X obj 144 741 > 240;
#X obj 65 199 * 30;
#X obj 177 198 * 30;
#X obj 291 201 * 30;
#X obj 300 893 *~ 88200;
#X msg 506 774 0.5;
#X msg 590 769 0;
#X obj 297 348 t f f b;
#X obj 175 344 t f f b;
#X obj 63 350 t f f b;
#X obj 287 699 != 0;
#X obj 236 971 *~;
#X obj 247 837 line~;
#X msg 265 775 \$1 10;
#X obj 519 719 sel 1;
#X obj 482 845 phasor~;
#X floatatom 88 508 5 0 0 0 - - -;
#X obj 646 846 phasor~;
#X obj 520 682 > 0.5 && < 3;
#X msg 740 769 0;
#X obj 669 719 sel 1;
#X obj 670 682 > 3 && < 5;
#X msg 656 774 1;
#X obj 766 856 phasor~;
#X msg 860 779 0;
#X obj 789 729 sel 1;
#X obj 790 692 > 5 && < 8;
#X msg 776 784 2;
#X obj 918 849 phasor~;
#X msg 1012 772 0;
#X obj 941 722 sel 1;
#X msg 928 777 3;
#X obj 942 685 > 8 && < 11;
#X connect 0 0 37 0;
#X connect 0 1 38 0;
#X connect 0 2 39 0;
#X connect 1 0 4 0;
#X connect 2 0 8 0;
#X connect 3 0 12 0;
#X connect 4 0 45 0;
#X connect 5 0 6 1;
#X connect 6 0 7 0;
#X connect 6 0 7 1;
#X connect 7 0 16 0;
#X connect 7 0 52 0;
#X connect 8 0 44 0;
#X connect 9 0 10 1;
#X connect 10 0 11 0;
#X connect 10 0 11 1;
#X connect 11 0 16 1;
#X connect 12 0 43 0;
#X connect 13 0 14 1;
#X connect 14 0 15 0;
#X connect 14 0 15 1;
#X connect 15 0 17 1;
#X connect 16 0 17 0;
#X connect 17 0 18 0;
#X connect 18 0 32 0;
#X connect 18 0 46 0;
#X connect 18 0 54 0;
#X connect 18 0 57 0;
#X connect 18 0 62 0;
#X connect 18 0 68 0;
#X connect 19 0 20 0;
#X connect 20 0 36 0;
#X connect 21 0 22 0;
#X connect 22 0 19 0;
#X connect 25 0 33 0;
#X connect 26 0 47 1;
#X connect 27 0 30 0;
#X connect 28 0 0 0;
#X connect 28 1 27 0;
#X connect 30 0 29 0;
#X connect 31 0 29 0;
#X connect 32 0 19 0;
#X connect 32 1 19 1;
#X connect 33 0 24 0;
#X connect 35 0 28 0;
#X connect 36 0 21 0;
#X connect 37 0 1 0;
#X connect 38 0 2 0;
#X connect 39 0 3 0;
#X connect 40 0 26 0;
#X connect 41 0 51 0;
#X connect 42 0 51 0;
#X connect 43 0 13 1;
#X connect 43 1 14 0;
#X connect 43 2 13 0;
#X connect 44 0 9 1;
#X connect 44 1 10 0;
#X connect 44 2 9 0;
#X connect 45 0 5 1;
#X connect 45 1 6 0;
#X connect 45 2 5 0;
#X connect 46 0 49 0;
#X connect 47 0 34 0;
#X connect 47 0 34 1;
#X connect 48 0 47 0;
#X connect 49 0 48 0;
#X connect 50 0 41 0;
#X connect 50 1 42 0;
#X connect 51 0 40 0;
#X connect 53 0 40 0;
#X connect 54 0 50 0;
#X connect 55 0 53 0;
#X connect 56 0 58 0;
#X connect 56 1 55 0;
#X connect 57 0 56 0;
#X connect 58 0 53 0;
#X connect 59 0 40 0;
#X connect 60 0 59 0;
#X connect 61 0 63 0;
#X connect 61 1 60 0;
#X connect 62 0 61 0;
#X connect 63 0 59 0;
#X connect 64 0 40 0;
#X connect 65 0 64 0;
#X connect 66 0 67 0;
#X connect 66 1 65 0;
#X connect 67 0 64 0;
#X connect 68 0 66 0;
