#N canvas 162 23 1460 1060 12;
#X floatatom 759 304 5 0 0 0 - - -;
#X obj 427 422 dac~;
#X floatatom 62 202 5 0 100 0 - - -;
#X floatatom 134 292 5 0 10 0 - - -;
#X obj 62 257 line 10;
#X msg 62 229 \$1 50;
#X obj 134 234 loadbang;
#X msg 134 262 8;
#X msg 641 -301 \; pd dsp 1;
#X obj 617 -360 loadbang;
#X obj 617 -259 print Running;
#X obj 617 -332 delay 100;
#X obj 101 16 dumpOSC 5678;
#N canvas 770 291 489 490 normal_play 0;
#X obj 42 44 inlet;
#X obj 95 44 inlet;
#X obj 43 368 hip~ 5;
#X obj 43 320 line~;
#X obj 43 344 tabread4~ sample1;
#X text 180 308 <-- read point (100ths of a second);
#X text 185 346 comment;
#X obj 130 247 sel 0;
#X msg 130 278 0 0;
#X obj 43 264 pack 0 180;
#X obj 43 392 outlet~;
#X obj 96 94 * 220500;
#X obj 43 141 * 220500;
#X obj 43 199 % 220500;
#X obj 149 47 r sampleLength;
#X obj 96 165 r sampleLength;
#X connect 0 0 12 0;
#X connect 1 0 11 0;
#X connect 2 0 10 0;
#X connect 3 0 4 0;
#X connect 4 0 2 0;
#X connect 7 0 8 0;
#X connect 8 0 3 0;
#X connect 9 0 3 0;
#X connect 11 0 12 1;
#X connect 12 0 13 0;
#X connect 13 0 7 0;
#X connect 13 0 9 0;
#X connect 14 0 11 1;
#X connect 15 0 13 1;
#X restore 62 330 pd normal_play;
#N canvas 20 187 1005 835 rec 0;
#X obj 205 214 tabwrite~ sample1;
#X obj 288 180 adc~;
#X obj 86 27 sel 0 1;
#X msg 204 95 stop;
#X obj 255 97 t b b;
#X msg 287 130 \; sample1 const 0;
#X obj 86 -9 inlet;
#X obj 85 441 f;
#X obj 86 201 tgl 15 0 empty empty empty 17 7 0 10 -262144 -1 -1 0
1;
#X obj 85 557 outlet;
#X msg 120 215 0;
#X obj 137 297 loadbang;
#X msg 86 149 0;
#X msg 119 149 1;
#X floatatom 137 360 15 0 0 0 - - -;
#X msg 137 326 10;
#X obj 85 399 metro 10;
#X floatatom 85 480 5 0 0 0 - - -;
#X obj 127 441 + 10;
#X obj 85 520 * 44.1;
#X obj 223 559 outlet;
#X connect 1 0 0 0;
#X connect 2 0 3 0;
#X connect 2 0 12 0;
#X connect 2 1 4 0;
#X connect 3 0 0 0;
#X connect 4 0 0 0;
#X connect 4 0 13 0;
#X connect 4 1 5 0;
#X connect 4 1 10 0;
#X connect 6 0 2 0;
#X connect 7 0 17 0;
#X connect 7 0 18 0;
#X connect 8 0 16 0;
#X connect 10 0 7 0;
#X connect 11 0 15 0;
#X connect 12 0 8 0;
#X connect 13 0 8 0;
#X connect 14 0 16 1;
#X connect 15 0 14 0;
#X connect 16 0 7 0;
#X connect 17 0 19 0;
#X connect 17 0 20 0;
#X connect 18 0 7 1;
#X connect 19 0 9 0;
#X restore 759 331 pd rec;
#N canvas 0 22 450 300 (subpatch) 0;
#X array sample1 220500 float 0;
#X coords 0 1 220499 -1 200 140 1 0 0;
#X restore 80 -235 graph;
#X floatatom 81 -358 15 0 0 0 - - -;
#N canvas 1398 209 368 854 random_play 1;
#X obj 65 27 inlet;
#X obj 46 759 outlet~;
#X obj 65 245 metro 10;
#X obj 64 673 tabread4~ sample1;
#X obj 64 409 random 220500;
#X obj 65 57 t f f;
#X obj 65 130 sel 0;
#X msg 65 161 0;
#X msg 102 161 1;
#X obj 65 95 > 0;
#X obj 65 193 tgl 15 0 empty empty empty 17 7 0 10 -262144 -1 -1 0
1;
#X obj 97 484 + 441;
#X obj 129 433 r play_duration;
#X obj 129 459 * 44.1;
#X obj 157 154 r play_duration;
#X obj 152 275 r sampleLength;
#X obj 64 438 t f f;
#X msg 64 614 \$1 \, \$2 \$3;
#X obj 64 643 vline~;
#X obj 63 585 pack f f f;
#X obj 143 91 + 1;
#X obj 158 212 / 1;
#X obj 142 119 t b f;
#X floatatom 158 184 5 0 0 0 - - -;
#X obj 158 248 s play_time;
#X obj 130 554 r play_time;
#X obj 46 706 *~;
#X obj 21 404 line~;
#X obj 197 303 r play_duration;
#X obj 152 381 - 1;
#X floatatom 151 358 10 0 0 0 - - -;
#X obj 163 329 bng 15 250 50 0 empty empty empty 17 7 0 10 -262144
-1 -1;
#X msg 21 354 \$1 100;
#X obj 46 734 rampsmooth~;
#X connect 0 0 5 0;
#X connect 2 0 4 0;
#X connect 3 0 26 1;
#X connect 4 0 16 0;
#X connect 5 0 9 0;
#X connect 5 1 20 0;
#X connect 6 0 7 0;
#X connect 6 1 8 0;
#X connect 7 0 10 0;
#X connect 8 0 10 0;
#X connect 9 0 6 0;
#X connect 9 0 32 0;
#X connect 10 0 2 0;
#X connect 11 0 19 1;
#X connect 12 0 13 0;
#X connect 13 0 11 1;
#X connect 14 0 23 0;
#X connect 15 0 30 0;
#X connect 16 0 19 0;
#X connect 16 1 11 0;
#X connect 17 0 18 0;
#X connect 18 0 3 0;
#X connect 19 0 17 0;
#X connect 20 0 22 0;
#X connect 21 0 2 1;
#X connect 21 0 24 0;
#X connect 22 0 23 0;
#X connect 22 1 21 1;
#X connect 23 0 21 0;
#X connect 25 0 19 2;
#X connect 26 0 33 0;
#X connect 27 0 26 0;
#X connect 28 0 29 1;
#X connect 28 0 31 0;
#X connect 29 0 4 1;
#X connect 30 0 29 0;
#X connect 31 0 30 0;
#X connect 32 0 27 0;
#X connect 33 0 1 0;
#X restore 542 360 pd random_play;
#X floatatom 80 -319 5 0 0 0 - - -;
#X floatatom 200 -318 5 0 0 0 - - -;
#X obj 80 -285 s time_position;
#X obj 200 -286 s play_duration;
#X obj 82 -387 r sampleLength;
#X obj 759 385 s sampleLength;
#X obj 114 43 print;
#X obj 101 106 unpack f f;
#X obj 687 305 loadbang;
#X msg 687 332 220500;
#X obj 618 -130 soundfiler;
#X obj 618 -194 loadbang;
#X msg 618 -162 read -resize sample5000.wav sample1;
#N canvas 1287 258 566 628 normalplay2 0;
#X obj 129 52 inlet;
#X text 105 19 speed comes in;
#X obj 128 307 phasor~ 0.2;
#X obj 128 393 tabread4~ sample1;
#X obj 109 458 outlet~;
#X obj 128 361 *~ 220500;
#X obj 188 330 r sampleLength;
#X obj 229 231 sig~ 0.2;
#X obj 229 44 loadbang;
#X floatatom 229 200 5 0 0 0 - - -;
#X obj 129 275 +~;
#X obj 129 128 line 0;
#X obj 129 89 \$1 50;
#X obj 38 304 > 0;
#X obj 110 424 *~;
#X msg 229 168 0.1;
#X obj 39 362 line~ \$1 50;
#X obj 302 44 r sampleTime;
#X floatatom 302 202 5 0 0 0 - - -;
#X floatatom 432 53 5 0 0 0 - - -;
#X obj 303 105 t b f;
#X obj 303 174 / 10;
#X obj 303 72 / 1000;
#X msg 303 139 1;
#X connect 0 0 12 0;
#X connect 0 0 13 0;
#X connect 2 0 5 0;
#X connect 3 0 14 1;
#X connect 5 0 3 0;
#X connect 6 0 5 1;
#X connect 7 0 10 1;
#X connect 8 0 15 0;
#X connect 9 0 7 0;
#X connect 10 0 2 0;
#X connect 11 0 10 0;
#X connect 12 0 11 0;
#X connect 13 0 16 0;
#X connect 14 0 4 0;
#X connect 15 0 9 0;
#X connect 16 0 14 0;
#X connect 17 0 22 0;
#X connect 18 0 7 0;
#X connect 20 0 23 0;
#X connect 20 1 21 1;
#X connect 21 0 18 0;
#X connect 22 0 20 0;
#X connect 23 0 21 0;
#X restore 426 359 pd normalplay2;
#X floatatom 467 228 10 0 0 0 - - -;
#X obj 200 -386 r sampleTime;
#X floatatom 200 -358 15 0 0 0 - - -;
#X obj 798 360 s sampleTime;
#X obj 62 136 tgl 15 0 empty empty empty 17 7 0 10 -262144 -1 -1 0
1;
#X obj 62 164 gate 1;
#X text 14 427 <-- Rotation Ratio 10 / \$1 *i.e 10 -> 1 sample is played
every 10 rounds;
#X obj 427 317 gate 2;
#X obj 101 69 route /acs/motion /rec_sw /mode_change;
#X obj 276 162 s mode;
#X obj 428 256 r mode;
#X obj 412 -367 r mode;
#X obj 412 -297 sel 1 2;
#X floatatom 412 -331 5 0 0 0 - - -;
#X symbolatom 412 -218 10 0 0 0 - - -;
#X msg 412 -257 set Normal;
#X msg 515 -256 set Random;
#X text 407 -392 Current Mode;
#X text 616 -220 Read sample when Pd turns on;
#X text 611 -390 Turn DSP on when Pd turns on;
#X text 48 110 ON/OFF;
#X msg 285 129 1;
#X msg 322 128 2;
#X obj 285 99 loadbang;
#X obj 890 257 r play_time;
#X floatatom 890 296 10 0 0 0 - - -;
#X msg 494 310 0;
#X obj 428 282 t f b;
#X obj 37 37;
#X obj 523 487 scope~ 130 130 256 3 128 -1 1 0 0 0 0 102 255 51 135
135 135 0;
#X connect 0 0 14 0;
#X connect 2 0 5 0;
#X connect 3 0 13 1;
#X connect 4 0 13 0;
#X connect 5 0 4 0;
#X connect 6 0 7 0;
#X connect 7 0 3 0;
#X connect 9 0 11 0;
#X connect 11 0 8 0;
#X connect 11 0 10 0;
#X connect 12 0 24 0;
#X connect 12 0 40 0;
#X connect 13 0 1 0;
#X connect 13 0 1 1;
#X connect 14 0 23 0;
#X connect 14 1 35 0;
#X connect 17 0 1 0;
#X connect 17 0 1 1;
#X connect 17 0 61 0;
#X connect 18 0 20 0;
#X connect 19 0 21 0;
#X connect 22 0 16 0;
#X connect 25 0 37 1;
#X connect 25 1 32 0;
#X connect 26 0 27 0;
#X connect 27 0 23 0;
#X connect 29 0 30 0;
#X connect 30 0 28 0;
#X connect 31 0 1 0;
#X connect 31 0 1 1;
#X connect 32 0 39 1;
#X connect 33 0 34 0;
#X connect 36 0 37 0;
#X connect 37 0 2 0;
#X connect 39 0 31 0;
#X connect 39 1 17 0;
#X connect 40 0 25 0;
#X connect 40 1 0 0;
#X connect 40 2 41 0;
#X connect 42 0 59 0;
#X connect 43 0 45 0;
#X connect 44 0 47 0;
#X connect 44 1 48 0;
#X connect 45 0 44 0;
#X connect 47 0 46 0;
#X connect 48 0 46 0;
#X connect 53 0 41 0;
#X connect 54 0 41 0;
#X connect 55 0 53 0;
#X connect 56 0 57 0;
#X connect 58 0 17 0;
#X connect 58 0 31 0;
#X connect 59 0 39 0;
#X connect 59 1 58 0;
