#N canvas 129 23 1460 1060 12;
#X obj 64 91 unpack f f f;
#X obj 64 277 abs;
#X obj 175 276 abs;
#X obj 295 275 abs;
#X obj 63 313 int;
#X obj 99 389 int;
#X obj 82 415 -;
#X obj 80 459 *;
#X obj 175 307 int;
#X obj 211 383 int;
#X obj 194 409 -;
#X obj 192 453 *;
#X obj 297 311 int;
#X obj 333 387 int;
#X obj 316 413 -;
#X obj 314 457 *;
#X obj 80 495 +;
#X obj 80 530 +;
#X obj 80 596 sqrt;
#X obj 77 675 accum;
#X floatatom 77 730 5 0 0 0 - - -;
#X obj 77 797 sel 1 0;
#X msg 77 822 0;
#N canvas 0 22 450 300 (subpatch) 0;
#X array sample1 88200 float 0;
#X coords 0 1 88199 -1 200 140 1;
#X restore 477 437 graph;
#X obj 472 391 soundfiler;
#X obj 476 326 loadbang;
#X obj 357 997 tabread4~ sample1;
#X floatatom 338 79 5 0 0 0 - - -;
#X obj 64 55 route /acs/motion /sw;
#X obj 338 136 tabwrite~ sample1;
#X obj 338 106 sel 1;
#X obj 396 107 adc~;
#X obj 78 633 t b f;
#X msg 474 358 read -resize sample2000.wav sample1;
#X obj 198 1064 dac~;
#X obj 64 19 dumpOSC 5678;
#X obj 77 764 > 240;
#X obj 64 242 * 30;
#X obj 174 242 * 30;
#X obj 295 244 * 30;
#X obj 357 963 *~ 88200;
#X obj 297 348 t f f b;
#X obj 175 344 t f f b;
#X obj 63 350 t f f b;
#X obj 197 707 != 0;
#X obj 198 1016 *~;
#X obj 197 812 line~;
#X msg 197 759 \$1 10;
#X obj 357 927 phasor~;
#X obj 499 23 tgl 15 0 empty empty empty 17 7 0 10 -262144 -1 -1 0
1;
#X obj 500 111 / 100;
#X floatatom 500 196 5 0 0 0 - - -;
#X obj 500 169 line 0;
#X msg 500 139 \$1 100;
#X obj 589 111 / 100;
#X floatatom 589 197 5 0 0 0 - - -;
#X obj 589 170 line 0;
#X msg 589 140 \$1 100;
#X obj 678 111 / 100;
#X floatatom 678 196 5 0 0 0 - - -;
#X obj 678 169 line 0;
#X msg 678 139 \$1 100;
#X obj 80 558 abs;
#X floatatom 450 625 20 0 0 0 - - -;
#X floatatom 450 866 20 0 0 0 - - -;
#X obj 450 833 line 0;
#X obj 357 893 +~;
#X obj 451 670 > 1 && < 3;
#X obj 451 696 sel 1;
#X obj 537 696 sel 1;
#X obj 623 695 sel 1;
#X obj 537 670 >= 3 && < 5;
#X obj 623 669 >= 5 && < 7;
#X obj 711 695 sel 1;
#X obj 711 669 >= 7;
#X msg 451 722 4;
#X msg 537 722 8;
#X msg 623 721 12;
#X msg 711 721 24;
#X floatatom 357 832 10 0 0 0 - - -;
#X obj 357 770 loadbang;
#X msg 357 802 0;
#X obj 357 864 sig~ 0;
#X obj 450 769 * 0.3;
#X obj 678 83 random 100;
#X obj 589 84 random 100;
#X obj 500 83 random 100;
#X obj 500 53 metro 50;
#X msg 450 799 \$1 50;
#X connect 0 0 37 0;
#X connect 0 1 38 0;
#X connect 0 2 39 0;
#X connect 1 0 4 0;
#X connect 2 0 8 0;
#X connect 3 0 12 0;
#X connect 4 0 43 0;
#X connect 5 0 6 1;
#X connect 6 0 7 0;
#X connect 6 0 7 1;
#X connect 7 0 16 0;
#X connect 8 0 42 0;
#X connect 9 0 10 1;
#X connect 10 0 11 0;
#X connect 10 0 11 1;
#X connect 11 0 16 1;
#X connect 12 0 41 0;
#X connect 13 0 14 1;
#X connect 14 0 15 0;
#X connect 14 0 15 1;
#X connect 15 0 17 1;
#X connect 16 0 17 0;
#X connect 17 0 62 0;
#X connect 18 0 32 0;
#X connect 18 0 44 0;
#X connect 18 0 63 0;
#X connect 19 0 20 0;
#X connect 20 0 36 0;
#X connect 21 0 22 0;
#X connect 22 0 19 0;
#X connect 25 0 33 0;
#X connect 26 0 45 1;
#X connect 27 0 30 0;
#X connect 28 0 0 0;
#X connect 28 1 27 0;
#X connect 30 0 29 0;
#X connect 31 0 29 0;
#X connect 32 0 19 0;
#X connect 32 1 19 1;
#X connect 33 0 24 0;
#X connect 35 0 28 0;
#X connect 36 0 21 0;
#X connect 37 0 1 0;
#X connect 38 0 2 0;
#X connect 39 0 3 0;
#X connect 40 0 26 0;
#X connect 41 0 13 1;
#X connect 41 1 14 0;
#X connect 41 2 13 0;
#X connect 42 0 9 1;
#X connect 42 1 10 0;
#X connect 42 2 9 0;
#X connect 43 0 5 1;
#X connect 43 1 6 0;
#X connect 43 2 5 0;
#X connect 44 0 47 0;
#X connect 45 0 34 0;
#X connect 45 0 34 1;
#X connect 46 0 45 0;
#X connect 47 0 46 0;
#X connect 48 0 40 0;
#X connect 49 0 87 0;
#X connect 50 0 53 0;
#X connect 51 0 37 0;
#X connect 52 0 51 0;
#X connect 53 0 52 0;
#X connect 54 0 57 0;
#X connect 55 0 38 0;
#X connect 56 0 55 0;
#X connect 57 0 56 0;
#X connect 58 0 61 0;
#X connect 59 0 39 0;
#X connect 60 0 59 0;
#X connect 61 0 60 0;
#X connect 62 0 18 0;
#X connect 63 0 67 0;
#X connect 63 0 71 0;
#X connect 63 0 72 0;
#X connect 63 0 74 0;
#X connect 64 0 66 1;
#X connect 65 0 64 0;
#X connect 66 0 48 0;
#X connect 67 0 68 0;
#X connect 68 0 75 0;
#X connect 69 0 76 0;
#X connect 70 0 77 0;
#X connect 71 0 69 0;
#X connect 72 0 70 0;
#X connect 73 0 78 0;
#X connect 74 0 73 0;
#X connect 75 0 83 0;
#X connect 76 0 83 0;
#X connect 77 0 83 0;
#X connect 78 0 83 0;
#X connect 79 0 82 0;
#X connect 80 0 81 0;
#X connect 81 0 79 0;
#X connect 82 0 66 0;
#X connect 83 0 88 0;
#X connect 84 0 58 0;
#X connect 85 0 54 0;
#X connect 86 0 50 0;
#X connect 87 0 84 0;
#X connect 87 0 85 0;
#X connect 87 0 86 0;
#X connect 88 0 65 0;
