#N canvas 162 23 1460 1060 12;
#X floatatom -120 174 5 0 0 0 - - -;
#X obj -194 447 dac~;
#X msg 844 -281 \; pd dsp 1;
#X obj 820 -340 loadbang;
#X obj 820 -239 print Running;
#X obj -193 20 dumpOSC 5678;
#N canvas 20 187 1005 835 rec 0;
#X obj 205 214 tabwrite~ sample1;
#X obj 288 180 adc~;
#X obj 86 27 sel 0 1;
#X msg 204 95 stop;
#X obj 255 97 t b b;
#X msg 287 130 \; sample1 const 0;
#X obj 86 -9 inlet;
#X obj 85 441 f;
#X obj 86 201 tgl 15 0 empty empty empty 17 7 0 10 -262144 -1 -1 0
1;
#X obj 85 557 outlet;
#X msg 120 215 0;
#X obj 137 297 loadbang;
#X msg 86 149 0;
#X msg 119 149 1;
#X floatatom 137 360 15 0 0 0 - - -;
#X msg 137 326 10;
#X obj 85 399 metro 10;
#X floatatom 85 480 5 0 0 0 - - -;
#X obj 127 441 + 10;
#X obj 85 520 * 44.1;
#X obj 223 559 outlet;
#X connect 1 0 0 0;
#X connect 2 0 3 0;
#X connect 2 0 12 0;
#X connect 2 1 4 0;
#X connect 3 0 0 0;
#X connect 4 0 0 0;
#X connect 4 0 13 0;
#X connect 4 1 5 0;
#X connect 4 1 10 0;
#X connect 6 0 2 0;
#X connect 7 0 17 0;
#X connect 7 0 18 0;
#X connect 8 0 16 0;
#X connect 10 0 7 0;
#X connect 11 0 15 0;
#X connect 12 0 8 0;
#X connect 13 0 8 0;
#X connect 14 0 16 1;
#X connect 15 0 14 0;
#X connect 16 0 7 0;
#X connect 17 0 19 0;
#X connect 17 0 20 0;
#X connect 18 0 7 1;
#X connect 19 0 9 0;
#X restore -120 201 pd rec;
#N canvas 0 22 450 300 (subpatch) 0;
#X array sample1 220500 float 0;
#X coords 0 1 220499 -1 200 140 1 0 0;
#X restore -215 -308 graph;
#X floatatom -213 -354 15 0 0 0 - - -;
#X obj -213 -383 r sampleLength;
#X obj -120 255 s sampleLength;
#X obj -194 283 unpack f f;
#X obj -192 175 loadbang;
#X msg -192 202 220500;
#X obj 821 -110 soundfiler;
#X obj 821 -174 loadbang;
#X msg 821 -142 read -resize sample5000.wav sample1;
#N canvas 513 238 1127 870 normalplay2 0;
#X obj 129 52 inlet;
#X text 105 19 speed comes in;
#X obj 128 537 phasor~ 0.2;
#X obj 128 623 tabread4~ sample1;
#X obj 110 687 outlet~;
#X obj 128 591 *~ 220500;
#X obj 188 563 r sampleLength;
#X obj 185 374 loadbang;
#X floatatom 185 436 5 0 0 0 - - -;
#X obj 128 503 +~;
#X obj 110 654 *~;
#X msg 185 404 0.05;
#X obj 195 170 sel 1;
#X floatatom 128 375 5 0 0 0 - - -;
#X obj 341 169 sel 1;
#X floatatom 341 286 8 0 0 0 - - -;
#X obj 13 150 r sampleTime;
#X floatatom 13 179 5 0 0 0 - - -;
#N canvas 1038 240 450 300 culFreq 0;
#X msg 18 117 1;
#X obj 18 152 / 5;
#X floatatom 17 180 15 0 0 0 - - -;
#X obj 18 83 t b f;
#X obj 18 50 / 1000;
#X obj 17 235 prepend set;
#X obj 18 21 inlet;
#X obj 17 264 outlet;
#X obj 17 205 - 0.1;
#X connect 0 0 1 0;
#X connect 1 0 2 0;
#X connect 2 0 8 0;
#X connect 3 0 0 0;
#X connect 3 1 1 1;
#X connect 4 0 3 0;
#X connect 5 0 7 0;
#X connect 6 0 4 0;
#X connect 8 0 5 0;
#X restore 13 208 pd culFreq;
#X obj 476 168 sel 1;
#X obj 39 592 line~;
#X obj 40 508 > 0;
#X obj 185 462 sig~ 0.05;
#X floatatom 476 287 8 0 0 0 - - -;
#X floatatom 194 287 8 0 0 0 - - -;
#X obj 130 171 sel 1;
#X floatatom 129 288 8 0 0 0 - - -;
#X obj 194 322 / 1.5;
#X obj 129 323 / 2;
#X obj 130 141 < 0.005;
#X obj 595 166 sel 1;
#X floatatom 595 285 8 0 0 0 - - -;
#X obj 476 320 * 1.5;
#X obj 128 441 line~;
#X obj 595 318 * 2;
#X obj 195 139 >= 0.005 && < 0.02;
#X obj 340 139 >= 0.02 && < 0.15;
#X obj 128 403 \$1 100;
#X msg 39 544 \$1 100;
#X obj 476 140 >= 0.15 && < 0.4;
#X obj 595 138 >= 0.4;
#X connect 0 0 21 0;
#X connect 0 0 29 0;
#X connect 0 0 35 0;
#X connect 0 0 36 0;
#X connect 0 0 39 0;
#X connect 0 0 40 0;
#X connect 2 0 5 0;
#X connect 3 0 10 1;
#X connect 5 0 3 0;
#X connect 6 0 5 1;
#X connect 7 0 11 0;
#X connect 8 0 22 0;
#X connect 9 0 2 0;
#X connect 10 0 4 0;
#X connect 11 0 8 0;
#X connect 12 0 24 0;
#X connect 13 0 37 0;
#X connect 14 0 15 0;
#X connect 15 0 13 0;
#X connect 16 0 17 0;
#X connect 17 0 18 0;
#X connect 18 0 23 0;
#X connect 18 0 15 0;
#X connect 18 0 24 0;
#X connect 18 0 26 0;
#X connect 18 0 31 0;
#X connect 19 0 23 0;
#X connect 20 0 10 0;
#X connect 21 0 38 0;
#X connect 22 0 9 1;
#X connect 23 0 32 0;
#X connect 24 0 27 0;
#X connect 25 0 26 0;
#X connect 26 0 28 0;
#X connect 27 0 13 0;
#X connect 28 0 13 0;
#X connect 29 0 25 0;
#X connect 30 0 31 0;
#X connect 31 0 34 0;
#X connect 32 0 13 0;
#X connect 33 0 9 0;
#X connect 34 0 13 0;
#X connect 35 0 12 0;
#X connect 36 0 14 0;
#X connect 37 0 33 0;
#X connect 38 0 20 0;
#X connect 39 0 19 0;
#X connect 40 0 30 0;
#X restore -113 379 pd normalplay2;
#X floatatom -113 349 10 0 0 0 - - -;
#X obj -95 -382 r sampleTime;
#X floatatom -95 -354 15 0 0 0 - - -;
#X obj -81 230 s sampleTime;
#X obj -45 148 s mode;
#X obj 117 -363 r mode;
#X floatatom 117 -327 5 0 0 0 - - -;
#X symbolatom 117 -214 10 0 0 0 - - -;
#X msg 117 -253 set Normal;
#X text 114 -386 Current Mode;
#X text 819 -200 Read sample when Pd turns on;
#X text 814 -370 Turn DSP on when Pd turns on;
#X obj -36 85 loadbang;
#X obj 820 -312 delay 1000;
#N canvas 725 246 580 728 am_effect 1;
#X obj 44 465 outlet~;
#X obj 160 47 inlet~;
#X obj 44 43 inlet;
#X text 27 21 Rotation;
#X text 160 27 Sound;
#X obj 44 396 *~;
#X obj 160 313 spigot~;
#X obj 206 258 r mode;
#X obj 206 283 != 1;
#X obj 44 428 /~ 2;
#X obj 94 161 max 0.01;
#N canvas 982 323 450 300 saw 0;
#X obj 47 14 inlet;
#X obj 47 66 line~;
#X msg 47 40 \$1 10;
#X obj 48 91 phasor~;
#X obj 48 119 *~ 2;
#X obj 48 173 clip~ 0 1;
#X obj 126 174 clip~ 0 1;
#X obj 126 120 *~ -2;
#X obj 48 201 +~;
#X obj 48 227 outlet~;
#X obj 48 146 +~ -1;
#X obj 126 147 +~ 1;
#X connect 0 0 2 0;
#X connect 1 0 3 0;
#X connect 2 0 1 0;
#X connect 3 0 4 0;
#X connect 3 0 7 0;
#X connect 4 0 10 0;
#X connect 5 0 8 0;
#X connect 6 0 8 1;
#X connect 7 0 11 0;
#X connect 8 0 9 0;
#X connect 10 0 5 0;
#X connect 11 0 6 0;
#X restore 94 190 pd saw;
#X obj 76 220 *~;
#X obj 44 216 -;
#X obj 44 151 t b f;
#X msg 44 184 1;
#X obj 44 307 +~;
#X obj 44 276 line~;
#X msg 44 247 \$1 25;
#X obj 44 77 / 2;
#X obj 44 114 + 0.5;
#X text -18 117 Offset;
#X obj 94 126 * 80;
#X obj 119 73 r max_effect;
#X obj 119 97 * 100;
#X connect 1 0 6 0;
#X connect 2 0 19 0;
#X connect 2 0 22 0;
#X connect 5 0 9 0;
#X connect 6 0 5 1;
#X connect 6 1 0 0;
#X connect 7 0 8 0;
#X connect 8 0 6 1;
#X connect 9 0 0 0;
#X connect 10 0 11 0;
#X connect 11 0 12 1;
#X connect 12 0 16 1;
#X connect 13 0 18 0;
#X connect 14 0 15 0;
#X connect 14 1 12 0;
#X connect 14 1 13 1;
#X connect 15 0 13 0;
#X connect 16 0 5 0;
#X connect 17 0 16 0;
#X connect 18 0 17 0;
#X connect 19 0 20 0;
#X connect 20 0 14 0;
#X connect 22 0 10 0;
#X connect 23 0 24 0;
#X connect 24 0 22 1;
#X restore -194 412 pd am_effect;
#X obj 353 -165 s max_rotation;
#X floatatom 353 -190 5 0 0 0 - - -;
#N canvas 1302 319 548 557 rotation_counter 0;
#X obj 180 26 inlet;
#X obj 180 121 accum;
#X obj 180 54 t b f;
#X obj 180 175 / 360;
#X obj 212 147 r max_rotation;
#X obj 180 231 outlet;
#X obj 180 205 min 1;
#X obj 232 27 inlet;
#X msg 232 75 0;
#X obj 232 53 bng 15 250 50 0 empty empty empty 17 7 0 10 -262144 -1
-1;
#X connect 0 0 2 0;
#X connect 1 0 3 0;
#X connect 2 0 1 0;
#X connect 2 1 1 1;
#X connect 3 0 6 0;
#X connect 4 0 3 1;
#X connect 6 0 5 0;
#X connect 7 0 9 0;
#X connect 8 0 1 0;
#X connect 9 0 8 0;
#X restore -194 318 pd rotation_counter;
#X floatatom -194 349 10 0 0 0 - - -;
#X obj -58 173 loadbang;
#X msg -58 201 5000;
#X obj -64 287 r effect_reset;
#X obj 352 -357 bng 15 250 50 0 empty empty empty 17 7 0 10 -262144
-1 -1;
#X obj 352 -333 s effect_reset;
#X msg -36 115 0;
#X msg 1 114 1;
#X obj 28 199 s effect_reset;
#X obj 27 174 sel 1;
#X obj 117 -293 sel 0 1;
#X msg 220 -252 set Effected;
#X text 350 -383 Reset Effect;
#X obj 353 -277 loadbang;
#X text 351 -298 Rotation Count;
#X obj 423 -216 prepend set;
#X msg 353 -216 180;
#X obj 101 149 s effect_speed;
#X obj 423 -250 * 360;
#X obj 423 -277 r effect_speed;
#X obj -193 60 route /acs/motion /rec_sw /mode_change /reset /effect
;
#X obj 101 93 unpack f f;
#X obj 168 123 s max_effect;
#X connect 0 0 6 0;
#X connect 3 0 31 0;
#X connect 5 0 56 0;
#X connect 6 0 10 0;
#X connect 6 1 21 0;
#X connect 9 0 8 0;
#X connect 11 0 35 0;
#X connect 11 1 18 0;
#X connect 12 0 13 0;
#X connect 13 0 10 0;
#X connect 15 0 16 0;
#X connect 16 0 14 0;
#X connect 17 0 32 1;
#X connect 18 0 17 0;
#X connect 19 0 20 0;
#X connect 23 0 24 0;
#X connect 24 0 46 0;
#X connect 26 0 25 0;
#X connect 30 0 42 0;
#X connect 31 0 2 0;
#X connect 31 0 4 0;
#X connect 32 0 1 0;
#X connect 32 0 1 1;
#X connect 34 0 33 0;
#X connect 35 0 36 0;
#X connect 36 0 32 0;
#X connect 37 0 38 0;
#X connect 38 0 21 0;
#X connect 39 0 35 1;
#X connect 40 0 41 0;
#X connect 42 0 22 0;
#X connect 43 0 22 0;
#X connect 45 0 44 0;
#X connect 46 0 26 0;
#X connect 46 1 47 0;
#X connect 47 0 25 0;
#X connect 49 0 52 0;
#X connect 51 0 34 0;
#X connect 52 0 34 0;
#X connect 54 0 51 0;
#X connect 55 0 54 0;
#X connect 56 0 11 0;
#X connect 56 1 0 0;
#X connect 56 2 22 0;
#X connect 56 3 45 0;
#X connect 56 4 57 0;
#X connect 57 0 53 0;
#X connect 57 1 58 0;
