#N canvas 109 34 1440 799 12;
#X floatatom -120 165 5 0 0 0 - - -;
#X obj 148 915 dac~;
#X msg 844 -281 \; pd dsp 1;
#X obj 820 -340 loadbang;
#X obj 820 -239 print Running;
#X obj -193 20 dumpOSC 5678;
#N canvas 20 187 1005 835 rec 0;
#X obj 205 214 tabwrite~ sample1;
#X obj 288 180 adc~;
#X obj 86 27 sel 0 1;
#X msg 204 95 stop;
#X obj 255 97 t b b;
#X msg 287 130 \; sample1 const 0;
#X obj 86 -9 inlet;
#X obj 85 441 f;
#X obj 86 201 tgl 15 0 empty empty empty 17 7 0 10 -262144 -1 -1 0
1;
#X obj 85 557 outlet;
#X msg 120 215 0;
#X obj 137 297 loadbang;
#X msg 86 149 0;
#X msg 119 149 1;
#X floatatom 137 360 15 0 0 0 - - -;
#X msg 137 326 10;
#X obj 85 399 metro 10;
#X floatatom 85 480 5 0 0 0 - - -;
#X obj 127 441 + 10;
#X obj 85 520 * 44.1;
#X obj 223 559 outlet;
#X connect 1 0 0 0;
#X connect 2 0 3 0;
#X connect 2 0 12 0;
#X connect 2 1 4 0;
#X connect 3 0 0 0;
#X connect 4 0 0 0;
#X connect 4 0 13 0;
#X connect 4 1 5 0;
#X connect 4 1 10 0;
#X connect 6 0 2 0;
#X connect 7 0 17 0;
#X connect 7 0 18 0;
#X connect 8 0 16 0;
#X connect 10 0 7 0;
#X connect 11 0 15 0;
#X connect 12 0 8 0;
#X connect 13 0 8 0;
#X connect 14 0 16 1;
#X connect 15 0 14 0;
#X connect 16 0 7 0;
#X connect 17 0 19 0;
#X connect 17 0 20 0;
#X connect 18 0 7 1;
#X connect 19 0 9 0;
#X restore -121 358 pd rec;
#N canvas 0 22 450 300 (subpatch) 0;
#X array sample1 220500 float 0;
#X coords 0 1 220499 -1 200 140 1 0 0;
#X restore -215 -308 graph;
#X floatatom -213 -354 15 0 0 0 - - -;
#X obj -213 -383 r sampleLength;
#X obj -121 412 s sampleLength;
#X obj -195 440 unpack f f;
#X obj -186 332 loadbang;
#X msg -186 359 220500;
#X obj 821 -110 soundfiler;
#X obj 821 -174 loadbang;
#X msg 821 -142 read -resize sample5000.wav sample1;
#X floatatom -53 509 10 0 0 0 - - -;
#X obj -95 -382 r sampleTime;
#X floatatom -95 -354 15 0 0 0 - - -;
#X obj -82 387 s sampleTime;
#X obj -45 148 s mode;
#X obj 117 -363 r mode;
#X floatatom 117 -327 5 0 0 0 - - -;
#X symbolatom 117 -214 10 0 0 0 - - -;
#X msg 117 -253 set Normal;
#X text 114 -386 Current Mode;
#X text 819 -200 Read sample when Pd turns on;
#X text 814 -370 Turn DSP on when Pd turns on;
#X obj -36 85 loadbang;
#X obj 820 -312 delay 1000;
#X obj 353 -165 s max_rotation;
#X floatatom 353 -190 5 0 0 0 - - -;
#N canvas 1035 433 548 557 rotation_counter 0;
#X obj 33 24 inlet;
#X obj 33 153 accum;
#X obj 33 52 t b f;
#X obj 33 207 / 360;
#X obj 65 179 r max_rotation;
#X obj 33 263 outlet;
#X obj 33 237 min 1;
#X obj 79 52 inlet;
#X obj 122 52 r max_rotation;
#X obj 79 111 int;
#X obj 79 82 * 180;
#X connect 0 0 2 0;
#X connect 1 0 3 0;
#X connect 2 0 1 0;
#X connect 2 1 1 1;
#X connect 3 0 6 0;
#X connect 4 0 3 1;
#X connect 6 0 5 0;
#X connect 7 0 10 0;
#X connect 8 0 10 1;
#X connect 9 0 1 0;
#X connect 10 0 9 0;
#X restore -195 475 pd rotation_counter;
#X floatatom -195 506 10 0 0 0 - - -;
#X obj -59 330 loadbang;
#X msg -59 358 5000;
#X obj -65 444 r effect_reset;
#X obj 352 -362 bng 15 250 50 0 empty empty empty 17 7 0 10 -262144
-1 -1;
#X obj 352 -319 s effect_reset;
#X msg -36 115 0;
#X msg 1 114 1;
#X obj 26 175 s effect_reset;
#X obj 117 -293 sel 0 1;
#X msg 220 -252 set Effected;
#X text 350 -383 Reset Effect;
#X obj 353 -277 loadbang;
#X text 351 -298 Rotation Count;
#X obj 423 -216 prepend set;
#X msg 353 -216 180;
#X obj 101 149 s effect_speed;
#X obj 423 -277 r effect_speed;
#X obj -193 60 route /acs/motion /rec_sw /mode_change /reset /effect
;
#X obj 101 93 unpack f f;
#X obj 168 123 s max_effect;
#X obj -195 535 s rotation;
#X obj 148 872 *~;
#X obj 286 372 loadbang;
#X msg 286 398 1;
#X obj 267 423 sig~ 1;
#X obj 423 -250 * 360;
#X obj 85 843 *~;
#X obj -32 713 r rotation;
#X obj -32 796 line~;
#X msg -32 768 \$1 50;
#N canvas 810 433 486 477 volume_changer 0;
#X obj 69 156 gate 2;
#X obj 69 55 t f f;
#X obj 69 126 + 1;
#X obj 69 210 bng 15 250 50 0 empty empty empty 17 7 0 10 -262144 -1
-1;
#X msg 69 239 1;
#X obj 69 23 inlet;
#X obj 69 373 outlet;
#X obj 102 292 cos;
#X obj 102 267 * 3.14159;
#X obj 102 317 + 1;
#X obj 102 344 / 2;
#X obj 102 207 * 5;
#X obj 102 240 - 4;
#X obj 136 25 inlet;
#X obj 69 96 > 0.8;
#X connect 0 0 3 0;
#X connect 0 1 11 0;
#X connect 1 0 0 1;
#X connect 1 1 14 0;
#X connect 2 0 0 0;
#X connect 3 0 4 0;
#X connect 4 0 6 0;
#X connect 5 0 1 0;
#X connect 7 0 9 0;
#X connect 8 0 7 0;
#X connect 9 0 10 0;
#X connect 10 0 6 0;
#X connect 11 0 12 0;
#X connect 12 0 8 0;
#X connect 13 0 14 1;
#X connect 14 0 2 0;
#X restore -32 740 pd volume_changer;
#N canvas 84 23 1127 799 player 0;
#X obj 129 52 inlet;
#X text 105 19 speed comes in;
#X obj 128 602 phasor~ 0.2;
#X obj 128 688 tabread4~ sample1;
#X obj 110 752 outlet~;
#X obj 128 656 *~ 220500;
#X obj 188 628 r sampleLength;
#X obj 185 374 loadbang;
#X floatatom 185 436 5 0 0 0 - - -;
#X obj 128 503 +~;
#X obj 110 719 *~;
#X msg 185 404 0.05;
#X obj 195 170 sel 1;
#X floatatom 128 375 5 0 0 0 - - -;
#X obj 341 169 sel 1;
#X floatatom 341 286 8 0 0 0 - - -;
#X obj 13 150 r sampleTime;
#X floatatom 13 179 5 0 0 0 - - -;
#N canvas 1038 240 450 300 culFreq 0;
#X msg 18 117 1;
#X obj 18 152 / 5;
#X floatatom 17 180 15 0 0 0 - - -;
#X obj 18 83 t b f;
#X obj 18 50 / 1000;
#X obj 17 235 prepend set;
#X obj 18 21 inlet;
#X obj 17 264 outlet;
#X obj 17 205 - 0.1;
#X connect 0 0 1 0;
#X connect 1 0 2 0;
#X connect 2 0 8 0;
#X connect 3 0 0 0;
#X connect 3 1 1 1;
#X connect 4 0 3 0;
#X connect 5 0 7 0;
#X connect 6 0 4 0;
#X connect 8 0 5 0;
#X restore 13 208 pd culFreq;
#X obj 476 168 sel 1;
#X obj 39 592 line~;
#X obj 40 508 > 0;
#X obj 185 462 sig~ 0.05;
#X floatatom 476 287 8 0 0 0 - - -;
#X floatatom 194 287 8 0 0 0 - - -;
#X obj 130 171 sel 1;
#X floatatom 129 288 8 0 0 0 - - -;
#X obj 194 322 / 1.5;
#X obj 129 323 / 2;
#X obj 130 141 < 0.005;
#X obj 476 320 * 1.5;
#X obj 128 441 line~;
#X obj 195 139 >= 0.005 && < 0.02;
#X obj 340 139 >= 0.02 && < 0.15;
#X obj 128 403 \$1 100;
#X msg 39 544 \$1 100;
#X obj 476 140 >= 0.15 && < 0.4;
#N canvas 1264 302 405 643 effector 0;
#X obj 54 391 outlet~;
#X text 37 31 Rotation;
#X obj 54 322 *~;
#X obj 170 272 spigot~;
#X obj 216 217 r mode;
#X obj 216 242 != 1;
#X obj 72 200 max 0.01;
#X obj 54 259 *~;
#X obj 104 112 r max_effect;
#X obj 104 136 * 100;
#X obj 170 57 inlet~;
#X obj 54 53 r rotation;
#X obj 72 229 osc~;
#X obj 54 287 +~ 1;
#X obj 72 165 * 100;
#X text 170 37 Modulator;
#X connect 2 0 0 0;
#X connect 3 0 2 1;
#X connect 3 1 0 0;
#X connect 4 0 5 0;
#X connect 5 0 3 1;
#X connect 6 0 12 0;
#X connect 7 0 13 0;
#X connect 8 0 9 0;
#X connect 9 0 14 1;
#X connect 10 0 3 0;
#X connect 11 0 7 0;
#X connect 11 0 14 0;
#X connect 12 0 7 1;
#X connect 13 0 2 0;
#X connect 14 0 6 0;
#X restore 128 543 pd effector;
#X obj 660 167 sel 1;
#X floatatom 660 286 8 0 0 0 - - -;
#X obj 660 319 * 2;
#X obj 794 165 sel 1;
#X floatatom 794 284 8 0 0 0 - - -;
#X obj 931 166 sel 1;
#X floatatom 931 285 8 0 0 0 - - -;
#X obj 829 210 bng 15 250 50 0 empty empty empty 17 7 0 10 -262144
-1 -1;
#X obj 968 210 bng 15 250 50 0 empty empty empty 17 7 0 10 -262144
-1 -1;
#X obj 693 213 bng 15 250 50 0 empty empty empty 17 7 0 10 -262144
-1 -1;
#X obj 931 318 * 5;
#X obj 795 317 * 2.5;
#X obj 931 138 >= 1.5;
#X obj 660 139 >= 0.4 && < 0.8;
#X obj 794 137 >= 0.8 && < 1.5;
#X obj 287 541 inlet;
#X text 282 515 Reset Phase;
#X connect 0 0 21 0;
#X connect 0 0 29 0;
#X connect 0 0 32 0;
#X connect 0 0 33 0;
#X connect 0 0 36 0;
#X connect 0 0 50 0;
#X connect 0 0 51 0;
#X connect 0 0 52 0;
#X connect 2 0 5 0;
#X connect 3 0 10 1;
#X connect 5 0 3 0;
#X connect 6 0 5 1;
#X connect 7 0 11 0;
#X connect 8 0 22 0;
#X connect 9 0 37 0;
#X connect 10 0 4 0;
#X connect 11 0 8 0;
#X connect 12 0 24 0;
#X connect 13 0 34 0;
#X connect 14 0 15 0;
#X connect 15 0 13 0;
#X connect 16 0 17 0;
#X connect 17 0 18 0;
#X connect 18 0 23 0;
#X connect 18 0 15 0;
#X connect 18 0 24 0;
#X connect 18 0 26 0;
#X connect 18 0 39 0;
#X connect 18 0 42 0;
#X connect 18 0 44 0;
#X connect 19 0 23 0;
#X connect 20 0 10 0;
#X connect 21 0 35 0;
#X connect 22 0 9 1;
#X connect 23 0 30 0;
#X connect 24 0 27 0;
#X connect 25 0 26 0;
#X connect 26 0 28 0;
#X connect 27 0 13 0;
#X connect 28 0 13 0;
#X connect 29 0 25 0;
#X connect 30 0 13 0;
#X connect 31 0 9 0;
#X connect 32 0 12 0;
#X connect 33 0 14 0;
#X connect 34 0 31 0;
#X connect 35 0 20 0;
#X connect 36 0 19 0;
#X connect 37 0 2 0;
#X connect 38 0 39 0;
#X connect 38 0 47 0;
#X connect 39 0 40 0;
#X connect 40 0 13 0;
#X connect 41 0 42 0;
#X connect 41 0 45 0;
#X connect 42 0 49 0;
#X connect 43 0 44 0;
#X connect 43 0 46 0;
#X connect 44 0 48 0;
#X connect 48 0 13 0;
#X connect 49 0 13 0;
#X connect 50 0 43 0;
#X connect 51 0 38 0;
#X connect 52 0 41 0;
#X connect 53 0 2 1;
#X restore 64 585 pd player;
#X obj 103 613 spigot~;
#X obj 149 557 r mode;
#X obj 149 582 != 1;
#X obj 267 59 route /gain /Volume_Threshold;
#X obj 367 90 s volchange_Threshold;
#X obj 84 713 r volchange_Threshold;
#X text 260 710 Threshould to start changing volume;
#X text 181 621 If effected \, Volume will be changed \, depending
on Rotation;
#N canvas 699 163 468 866 modeChanger 0;
#X obj 104 298 inlet;
#X obj 104 327 sel 0 1;
#X obj 266 525 outlet;
#X text 41 464 Cut Acc;
#X text 221 402 Start Rec;
#X obj 104 523 outlet;
#X obj 104 359 t b b;
#X msg 136 417 0;
#X msg 104 490 1;
#X text 225 422 Stop Rec;
#X text 32 493 Open ACC;
#X text 80 547 ACC Control;
#X text 263 551 Rec Control;
#X obj 185 523 outlet;
#X obj 155 361 t b b;
#X text 166 548 Effect Reset;
#X msg 155 389 1;
#X msg 135 465 0;
#X connect 0 0 1 0;
#X connect 1 0 6 0;
#X connect 1 1 14 0;
#X connect 6 0 8 0;
#X connect 6 1 7 0;
#X connect 7 0 2 0;
#X connect 8 0 5 0;
#X connect 14 0 16 0;
#X connect 14 1 17 0;
#X connect 16 0 2 0;
#X connect 17 0 5 0;
#X connect 17 0 13 0;
#X restore -120 189 pd modeChanger;
#X floatatom 607 -310 5 0 0 0 - - -;
#X floatatom 547 -310 5 0 0 0 - - -;
#X obj 547 -341 r isACC;
#X obj 607 -341 r isRec;
#X obj -120 239 s isACC;
#X obj -25 235 s isRec;
#X obj 26 510 r isACC;
#X obj -73 214 s effect_reset;
#X obj -121 332 r isRec;
#X floatatom 669 -310 5 0 0 0 - - -;
#X obj 669 -341 r effect_reset;
#N canvas 938 147 315 419 ACCgate 0;
#X obj 15 23 inlet;
#X obj 57 23 inlet;
#X obj 18 293 outlet;
#X obj 18 262 spigot;
#X obj 57 51 sel 1 0;
#X msg 57 234 1;
#X msg 112 108 0;
#X obj 80 79 t b b;
#X msg 80 108 0;
#X obj 123 137 r sampleTime;
#X msg 87 189 0.1;
#X obj 58 211 t b b;
#X msg 89 256 0;
#X obj 57 162 delay 5000;
#X obj 127 296 outlet;
#X text 17 317 Speed;
#X text 125 318 Reset Phase;
#X obj 57 134 t b b b;
#X msg 127 190 0;
#X connect 0 0 3 0;
#X connect 1 0 4 0;
#X connect 3 0 2 0;
#X connect 4 0 17 0;
#X connect 4 1 7 0;
#X connect 5 0 3 1;
#X connect 6 0 3 1;
#X connect 7 0 8 0;
#X connect 7 1 6 0;
#X connect 8 0 2 0;
#X connect 9 0 13 1;
#X connect 10 0 2 0;
#X connect 11 0 5 0;
#X connect 11 1 12 0;
#X connect 12 0 2 0;
#X connect 13 0 11 0;
#X connect 17 0 13 0;
#X connect 17 1 10 0;
#X connect 17 2 18 0;
#X connect 18 0 14 0;
#X restore -41 536 pd ACCgate;
#X floatatom -36 581 5 0 0 0 - - -;
#X msg 352 -343 0;
#X obj -183 190 loadbang;
#X msg -183 215 1;
#X obj 86 549 bng 15 250 50 0 empty empty empty 17 7 0 10 -262144 -1
-1;
#X connect 0 0 75 0;
#X connect 3 0 30 0;
#X connect 5 0 52 0;
#X connect 5 0 70 0;
#X connect 6 0 10 0;
#X connect 6 1 20 0;
#X connect 9 0 8 0;
#X connect 11 0 33 0;
#X connect 11 1 17 0;
#X connect 12 0 13 0;
#X connect 13 0 10 0;
#X connect 15 0 16 0;
#X connect 16 0 14 0;
#X connect 17 0 87 0;
#X connect 18 0 19 0;
#X connect 22 0 23 0;
#X connect 23 0 43 0;
#X connect 25 0 24 0;
#X connect 29 0 40 0;
#X connect 30 0 2 0;
#X connect 30 0 4 0;
#X connect 32 0 31 0;
#X connect 33 0 34 0;
#X connect 34 0 55 0;
#X connect 35 0 36 0;
#X connect 36 0 20 0;
#X connect 37 0 33 1;
#X connect 38 0 89 0;
#X connect 40 0 21 0;
#X connect 41 0 21 0;
#X connect 43 0 25 0;
#X connect 43 1 44 0;
#X connect 44 0 24 0;
#X connect 46 0 49 0;
#X connect 48 0 32 0;
#X connect 49 0 32 0;
#X connect 51 0 60 0;
#X connect 52 0 11 0;
#X connect 52 1 0 0;
#X connect 52 2 21 0;
#X connect 52 3 42 0;
#X connect 52 4 53 0;
#X connect 53 0 50 0;
#X connect 53 1 54 0;
#X connect 56 0 1 0;
#X connect 56 0 1 1;
#X connect 57 0 58 0;
#X connect 58 0 59 0;
#X connect 59 0 56 1;
#X connect 60 0 48 0;
#X connect 61 0 56 0;
#X connect 62 0 65 0;
#X connect 63 0 61 0;
#X connect 64 0 63 0;
#X connect 65 0 64 0;
#X connect 66 0 67 0;
#X connect 67 0 61 1;
#X connect 67 1 56 0;
#X connect 68 0 69 0;
#X connect 69 0 67 1;
#X connect 70 0 59 0;
#X connect 70 1 71 0;
#X connect 72 0 65 1;
#X connect 75 0 80 0;
#X connect 75 1 83 0;
#X connect 75 2 81 0;
#X connect 78 0 77 0;
#X connect 79 0 76 0;
#X connect 82 0 87 1;
#X connect 84 0 6 0;
#X connect 86 0 85 0;
#X connect 87 0 66 0;
#X connect 87 0 88 0;
#X connect 87 1 66 1;
#X connect 87 1 92 0;
#X connect 89 0 39 0;
#X connect 90 0 91 0;
#X connect 91 0 80 0;
