#N canvas 18 23 1460 1060 12;
#N canvas 0 22 450 300 (subpatch) 0;
#X array sample1 88200 float 0;
#X coords 0 1 88199 -1 200 140 1;
#X restore 773 325 graph;
#X obj 768 279 soundfiler;
#X obj 772 214 loadbang;
#X floatatom 772 129 5 0 0 0 - - -;
#X obj 772 186 tabwrite~ sample1;
#X obj 772 156 sel 1;
#X obj 830 157 adc~;
#X msg 770 246 read -resize sample2000.wav sample1;
#X obj 131 416 hip~ 5;
#X obj 131 358 line~;
#X obj 130 302 pack 0 100;
#X obj 131 382 tabread4~ sample1;
#X obj 131 450 dac~;
#X text 263 312 <-- read point (100ths of a second);
#X floatatom 126 105 5 0 100 0 - - -;
#X text 268 350;
#X obj 126 31 dumpOSC 5678;
#X obj 126 67 route /acs/motion /sw;
#X obj 128 242 % 88200;
#X obj 128 212 * 88200;
#X floatatom 59 373 5 0 0 0 - - -;
#X obj 174 177 * 88200;
#X floatatom 173 138 5 1 10 0 - - -;
#X obj 216 285 sel 0;
#X msg 216 312 0;
#X text 247 140 <-- Rotation Ratio 10 / \$1 *i.e 10 -> 1 sample is
played every rounds 10 revolutions;
#X connect 2 0 7 0;
#X connect 3 0 5 0;
#X connect 5 0 4 0;
#X connect 6 0 4 0;
#X connect 7 0 1 0;
#X connect 8 0 12 0;
#X connect 8 0 12 1;
#X connect 9 0 11 0;
#X connect 10 0 9 0;
#X connect 11 0 8 0;
#X connect 14 0 19 0;
#X connect 16 0 17 0;
#X connect 17 0 14 0;
#X connect 17 1 3 0;
#X connect 18 0 10 0;
#X connect 18 0 20 0;
#X connect 18 0 23 0;
#X connect 19 0 18 0;
#X connect 21 0 19 1;
#X connect 22 0 21 0;
#X connect 23 0 24 0;
#X connect 24 0 9 0;
