#N canvas 168 23 1460 1060 12;
#N canvas 0 22 450 300 (subpatch) 0;
#X array sample1 249600 float 0;
#X coords 0 1 249599 -1 200 140 1;
#X restore 773 325 graph;
#X obj 767 279 soundfiler;
#X obj 772 214 loadbang;
#X floatatom 772 129 5 0 0 0 - - -;
#X obj 772 186 tabwrite~ sample1;
#X obj 772 156 sel 1;
#X obj 830 157 adc~;
#X obj 127 469 hip~ 5;
#X obj 127 411 line~;
#X obj 127 435 tabread4~ sample1;
#X obj 127 503 dac~;
#X text 264 399 <-- read point (100ths of a second);
#X floatatom 126 105 5 0 100 0 - - -;
#X text 269 437 comment;
#X obj 126 67 route /acs/motion /sw;
#X floatatom 56 360 5 0 0 0 - - -;
#X floatatom 174 206 5 0 10 0 - - -;
#X obj 214 340 sel 0;
#X text 243 140 <-- Rotation Ratio 10 / \$1 *i.e 10 -> 1 sample is
played every rounds 10 revolutions;
#X obj 126 165 line 10;
#X msg 126 137 \$1 50;
#X obj 173 231 * 44100;
#X obj 127 266 * 44100;
#X obj 127 296 % 44100;
#X msg 213 365 0 0;
#X obj 198 130 loadbang;
#X obj 127 355 pack 0 180;
#X msg 196 163 8;
#X msg 770 246 read -resize sample2000.wav sample1;
#X msg 1136 140 \; pd dsp 1;
#X obj 1125 58 loadbang;
#X obj 1101 182 print Running;
#X obj 1124 96 delay 100;
#X obj 126 31 dumpOSC 5678;
#X connect 2 0 28 0;
#X connect 3 0 5 0;
#X connect 5 0 4 0;
#X connect 6 0 4 0;
#X connect 7 0 10 0;
#X connect 7 0 10 1;
#X connect 8 0 9 0;
#X connect 9 0 7 0;
#X connect 12 0 20 0;
#X connect 14 0 12 0;
#X connect 14 1 3 0;
#X connect 16 0 21 0;
#X connect 17 0 24 0;
#X connect 19 0 22 0;
#X connect 20 0 19 0;
#X connect 21 0 22 1;
#X connect 22 0 23 0;
#X connect 23 0 15 0;
#X connect 23 0 17 0;
#X connect 23 0 26 0;
#X connect 24 0 8 0;
#X connect 25 0 27 0;
#X connect 26 0 8 0;
#X connect 27 0 16 0;
#X connect 28 0 1 0;
#X connect 30 0 32 0;
#X connect 32 0 29 0;
#X connect 32 0 31 0;
#X connect 33 0 14 0;
