#N canvas 367 23 1460 1060 12;
#X obj 64 91 unpack f f f;
#X obj 64 277 abs;
#X obj 175 276 abs;
#X obj 295 275 abs;
#X obj 63 313 int;
#X obj 99 389 int;
#X obj 82 415 -;
#X obj 80 459 *;
#X obj 175 307 int;
#X obj 211 383 int;
#X obj 194 409 -;
#X obj 192 453 *;
#X obj 297 311 int;
#X obj 333 387 int;
#X obj 316 413 -;
#X obj 314 457 *;
#X obj 80 495 +;
#X obj 80 530 +;
#X obj 80 596 sqrt;
#X obj 77 675 accum;
#X floatatom 77 730 5 0 0 0 - - -;
#X obj 77 797 sel 1 0;
#X msg 77 822 0;
#N canvas 0 22 450 300 (subpatch) 0;
#X array sample1 88200 float 0;
#X coords 0 1 88199 -1 200 140 1;
#X restore 477 437 graph;
#X obj 472 391 soundfiler;
#X obj 476 326 loadbang;
#X obj 357 1055 tabread4~ sample1;
#X floatatom 338 79 5 0 0 0 - - -;
#X obj 338 136 tabwrite~ sample1;
#X obj 338 106 sel 1;
#X obj 396 107 adc~;
#X obj 78 633 t b f;
#X msg 474 358 read -resize sample2000.wav sample1;
#X obj 198 1122 dac~;
#X obj 77 764 > 240;
#X obj 357 1021 *~ 88200;
#X obj 297 348 t f f b;
#X obj 175 344 t f f b;
#X obj 63 350 t f f b;
#X obj 197 707 != 0;
#X obj 198 1074 *~;
#X obj 197 812 line~;
#X obj 357 985 phasor~;
#X obj 499 23 tgl 15 0 empty empty empty 17 7 0 10 -262144 -1 -1 0
1;
#X obj 500 111 / 100;
#X floatatom 500 196 5 0 0 0 - - -;
#X obj 500 169 line 0;
#X msg 500 139 \$1 100;
#X obj 589 111 / 100;
#X floatatom 589 197 5 0 0 0 - - -;
#X obj 589 170 line 0;
#X msg 589 140 \$1 100;
#X obj 678 111 / 100;
#X floatatom 678 196 5 0 0 0 - - -;
#X obj 678 169 line 0;
#X msg 678 139 \$1 100;
#X obj 80 558 abs;
#X floatatom 455 690 20 0 0 0 - - -;
#X floatatom 450 933 20 0 0 0 - - -;
#X obj 450 900 line 0;
#X obj 357 960 +~;
#X obj 500 762 sel 1;
#X obj 586 762 sel 1;
#X obj 686 759 sel 1;
#X obj 786 759 sel 1;
#X floatatom 357 899 10 0 0 0 - - -;
#X obj 357 837 loadbang;
#X msg 357 869 0;
#X obj 357 931 sig~ 0;
#X obj 678 83 random 100;
#X obj 589 84 random 100;
#X obj 500 83 random 100;
#X obj 500 53 metro 50;
#X obj 64 19 dumpOSC 4557;
#X obj 64 55 route /acc/rare /sw;
#X obj 454 761 sel 1;
#X msg 454 787 0;
#X obj 454 735 <= 2;
#X msg 197 786 \$1 50;
#X obj 500 736 > 2 && < 5;
#X obj 64 242 * 30;
#X obj 175 242 * 30;
#X obj 295 244 * 30;
#X obj 455 658 line 0;
#X obj 450 836 * 0.1;
#X msg 500 788 2;
#X msg 586 788 5;
#X obj 586 735 >= 5 && < 10;
#X obj 686 733 >= 10 && < 15;
#X msg 686 785 10;
#X obj 786 733 >= 20 && < 30;
#X msg 786 785 20;
#X obj 885 759 sel 1;
#X msg 885 785 30;
#X obj 885 732 >= 30;
#X msg 455 624 \$1 100;
#X msg 450 866 \$1 100;
#X connect 0 0 80 0;
#X connect 0 1 81 0;
#X connect 0 2 82 0;
#X connect 1 0 4 0;
#X connect 2 0 8 0;
#X connect 3 0 12 0;
#X connect 4 0 38 0;
#X connect 5 0 6 1;
#X connect 6 0 7 0;
#X connect 6 0 7 1;
#X connect 7 0 16 0;
#X connect 8 0 37 0;
#X connect 9 0 10 1;
#X connect 10 0 11 0;
#X connect 10 0 11 1;
#X connect 11 0 16 1;
#X connect 12 0 36 0;
#X connect 13 0 14 1;
#X connect 14 0 15 0;
#X connect 14 0 15 1;
#X connect 15 0 17 1;
#X connect 16 0 17 0;
#X connect 17 0 56 0;
#X connect 18 0 31 0;
#X connect 18 0 39 0;
#X connect 18 0 95 0;
#X connect 19 0 20 0;
#X connect 20 0 34 0;
#X connect 21 0 22 0;
#X connect 22 0 19 0;
#X connect 25 0 32 0;
#X connect 26 0 40 1;
#X connect 27 0 29 0;
#X connect 29 0 28 0;
#X connect 30 0 28 0;
#X connect 31 0 19 0;
#X connect 31 1 19 1;
#X connect 32 0 24 0;
#X connect 34 0 21 0;
#X connect 35 0 26 0;
#X connect 36 0 13 1;
#X connect 36 1 14 0;
#X connect 36 2 13 0;
#X connect 37 0 9 1;
#X connect 37 1 10 0;
#X connect 37 2 9 0;
#X connect 38 0 5 1;
#X connect 38 1 6 0;
#X connect 38 2 5 0;
#X connect 39 0 78 0;
#X connect 40 0 33 0;
#X connect 40 0 33 1;
#X connect 41 0 40 0;
#X connect 42 0 35 0;
#X connect 43 0 72 0;
#X connect 44 0 47 0;
#X connect 45 0 80 0;
#X connect 46 0 45 0;
#X connect 47 0 46 0;
#X connect 48 0 51 0;
#X connect 49 0 81 0;
#X connect 50 0 49 0;
#X connect 51 0 50 0;
#X connect 52 0 55 0;
#X connect 53 0 82 0;
#X connect 54 0 53 0;
#X connect 55 0 54 0;
#X connect 56 0 18 0;
#X connect 57 0 77 0;
#X connect 57 0 79 0;
#X connect 57 0 87 0;
#X connect 57 0 88 0;
#X connect 57 0 90 0;
#X connect 57 0 94 0;
#X connect 58 0 60 1;
#X connect 59 0 58 0;
#X connect 60 0 42 0;
#X connect 61 0 85 0;
#X connect 62 0 86 0;
#X connect 63 0 89 0;
#X connect 64 0 91 0;
#X connect 65 0 68 0;
#X connect 66 0 67 0;
#X connect 67 0 65 0;
#X connect 68 0 60 0;
#X connect 69 0 52 0;
#X connect 70 0 48 0;
#X connect 71 0 44 0;
#X connect 72 0 69 0;
#X connect 72 0 70 0;
#X connect 72 0 71 0;
#X connect 73 0 74 0;
#X connect 74 0 0 0;
#X connect 74 1 27 0;
#X connect 75 0 76 0;
#X connect 76 0 84 0;
#X connect 77 0 75 0;
#X connect 78 0 41 0;
#X connect 79 0 61 0;
#X connect 80 0 1 0;
#X connect 81 0 2 0;
#X connect 82 0 3 0;
#X connect 83 0 57 0;
#X connect 84 0 96 0;
#X connect 85 0 84 0;
#X connect 86 0 84 0;
#X connect 87 0 62 0;
#X connect 88 0 63 0;
#X connect 89 0 84 0;
#X connect 90 0 64 0;
#X connect 91 0 84 0;
#X connect 92 0 93 0;
#X connect 93 0 84 0;
#X connect 94 0 92 0;
#X connect 95 0 83 0;
#X connect 96 0 59 0;
